<?xml version="1.0" encoding="utf-8"?>
<!-- Generator: Adobe Illustrator 26.3.1, SVG Export Plug-In . SVG Version: 6.00 Build 0)  -->
<svg version="1.1" id="Layer_1" xmlns="http://www.w3.org/2000/svg" xmlns:xlink="http://www.w3.org/1999/xlink" x="0px" y="0px"
	 viewBox="0 0 534.6 450.6" style="enable-background:new 0 0 534.6 450.6;" xml:space="preserve">
<style type="text/css">
	.st0{fill:none;stroke:#1573BB;stroke-width:2;stroke-miterlimit:10;}
	.st1{enable-background:new    ;}
	.st2{fill:#1573BB;}
	.st3{fill:#FFCB05;}
	.st4{fill:#ED1C59;}
	.st5{clip-path:url(#SVGID_00000097472619638302676690000000141939876690902174_);fill:#FFCB05;}
</style>
<g>
	<path class="st0" d="M364.8,171.1c0,0-48.6,12.1-99-12.2"/>
	<path class="st0" d="M158.9,167.5c0,0,126.6,7.3,187.6-43.7"/>
	<g class="st1">
		<path class="st2" d="M99.3,320.1c0-0.4,0.1-0.8,0.2-1.2c0.1-0.4,0.3-0.7,0.6-0.9c0.3-0.3,0.7-0.5,1.2-0.6c0.5-0.1,1.2-0.2,2.1-0.2
			h18.1c1.6,0,3.2,0.2,4.7,0.6c1.5,0.4,2.9,1,4.2,1.8c1.3,0.8,2.4,1.8,3.4,3c1,1.2,1.7,2.6,2.3,4.2c0.3,0.8,0.5,1.6,0.6,2.4
			s0.2,1.8,0.2,2.8c0,1.1-0.1,2.1-0.4,2.9c-0.3,0.9-0.6,1.6-0.9,2.2c-0.4,0.7-0.9,1.3-1.3,1.9c0.8,0.6,1.6,1.4,2.3,2.3
			c0.6,0.8,1.1,1.7,1.6,2.9c0.5,1.2,0.7,2.5,0.7,4.1c0,1.7-0.2,3.2-0.6,4.7c-0.5,1.8-1.3,3.4-2.3,4.8c-1,1.4-2.2,2.6-3.7,3.6
			c-1.4,1-2.9,1.7-4.6,2.2s-3.4,0.8-5.2,0.8H107c-1.1,0-2.1-0.2-3-0.6c-0.9-0.4-1.6-1-2.2-1.6c-0.6-0.7-1-1.4-1.4-2.3
			c-0.3-0.8-0.5-1.7-0.5-2.5v-32.6c0-0.3-0.1-0.6-0.1-0.9c0-0.3-0.1-0.6-0.1-0.9l-0.1-0.4c-0.1-0.4-0.2-0.8-0.2-1.2
			C99.3,320.9,99.3,320.5,99.3,320.1z M99.6,322.5c0,0.1,0,0.1,0,0.2c0,0.1,0,0.1,0,0.2L99.6,322.5z M113.8,329.3v5.3h7.3
			c0.3,0,0.6-0.1,0.9-0.2c0.3-0.1,0.6-0.3,0.8-0.6c0.2-0.2,0.4-0.5,0.5-0.9s0.2-0.7,0.2-1c0-0.8-0.3-1.4-0.8-1.9
			c-0.5-0.5-1.1-0.7-1.7-0.7H113.8z M113.8,345.2v6.3h7.8c0.3,0,0.7-0.1,1-0.2c0.4-0.1,0.7-0.3,1.1-0.5c0.3-0.2,0.6-0.6,0.8-1
			c0.2-0.4,0.3-0.9,0.3-1.5c0-0.6-0.1-1.1-0.3-1.5c-0.2-0.4-0.5-0.7-0.8-1c-0.3-0.3-0.7-0.4-1-0.5c-0.4-0.1-0.8-0.2-1.1-0.2H113.8z"
			/>
		<path class="st2" d="M144.2,332c0-2.6,1.3-3.9,3.9-3.9c1.3,0,2.3,0.3,3.1,1c0.8,0.7,1.5,1.7,2.1,3l3.1,6.5l1.8-0.3v18.9
			c0,1-0.2,1.9-0.6,2.8c-0.4,0.9-0.9,1.6-1.5,2.2c-0.6,0.6-1.4,1.1-2.2,1.5c-0.9,0.4-1.8,0.5-2.7,0.5c-1,0-1.9-0.2-2.8-0.5
			c-0.9-0.4-1.6-0.9-2.2-1.5c-0.6-0.6-1.1-1.4-1.5-2.2c-0.4-0.9-0.5-1.8-0.5-2.8V332z M152.7,331.8c1.4-1.2,2.9-2.1,4.5-2.8
			c1.6-0.7,3.3-1,5.1-1c1.1,0,2.3,0.1,3.5,0.4s2.3,0.7,3.2,1.3c1,0.6,1.8,1.4,2.4,2.3c0.6,1,0.9,2.1,0.9,3.5c0,0.9-0.2,1.8-0.6,2.6
			c-0.4,0.8-0.9,1.5-1.5,2.1c-0.6,0.6-1.3,1.1-2.1,1.4s-1.6,0.5-2.6,0.5c-0.5,0-1,0-1.5-0.1c-0.5-0.1-1-0.1-1.5-0.2
			c-0.5-0.1-1-0.1-1.5-0.1c-0.5,0-1,0.1-1.5,0.2c-0.3,0.1-0.6,0.3-0.8,0.6c-0.2,0.3-0.4,0.6-0.5,0.9c-0.1,0.4-0.2,0.8-0.2,1.2
			c0,0.4-0.1,0.9-0.1,1.4L152.7,331.8z"/>
		<path class="st2" d="M207.1,346.2c0,2.5-0.3,4.8-0.9,7.1c-0.6,2.2-1.5,4.1-2.7,5.8c-1.2,1.6-2.7,2.9-4.5,3.9
			c-1.8,0.9-4,1.4-6.5,1.4s-4.8-0.5-7-1.4c-2.2-0.9-4.1-2.2-5.8-3.9c-1.6-1.6-2.9-3.6-3.9-5.8c-1-2.2-1.4-4.6-1.4-7.1
			c0-2.5,0.5-4.8,1.4-7c1-2.2,2.3-4.1,3.9-5.8c1.6-1.6,3.6-2.9,5.8-3.9c2.2-1,4.5-1.4,7-1.4s4.7,0.5,6.5,1.4c1.8,1,3.3,2.3,4.5,3.9
			c1.2,1.6,2.1,3.6,2.7,5.8C206.8,341.4,207.1,343.7,207.1,346.2z M196.6,346.2c0-0.6-0.1-1.1-0.3-1.6c-0.2-0.5-0.5-1-0.8-1.4
			c-0.4-0.4-0.8-0.7-1.3-1c-0.5-0.2-1-0.4-1.6-0.4c-0.6,0-1.1,0.1-1.6,0.4c-0.5,0.2-0.9,0.6-1.3,1c-0.4,0.4-0.6,0.9-0.8,1.4
			c-0.2,0.5-0.3,1.1-0.3,1.6s0.1,1.1,0.3,1.7c0.2,0.5,0.5,1,0.8,1.4c0.4,0.4,0.8,0.7,1.3,1c0.5,0.2,1,0.4,1.6,0.4
			c0.6,0,1.1-0.1,1.6-0.4c0.5-0.2,0.9-0.6,1.3-1c0.4-0.4,0.6-0.9,0.8-1.4C196.4,347.3,196.6,346.8,196.6,346.2z M210.7,346.1
			c0,1-0.2,1.9-0.5,2.8c-0.4,0.9-0.9,1.6-1.5,2.2c-0.6,0.6-1.4,1.1-2.2,1.5c-0.9,0.4-1.8,0.5-2.8,0.5c-1,0-1.9-0.2-2.8-0.5
			c-0.9-0.4-1.6-0.9-2.2-1.5c-0.6-0.6-1.1-1.4-1.5-2.2c-0.4-0.9-0.6-1.8-0.6-2.8v-7.8l1.8,0.3l3.1-6.5c0.6-1.2,1.3-2.2,2.1-2.9
			c0.8-0.7,1.9-1.1,3.2-1.1c2.6,0,3.9,1.3,3.9,3.9V346.1z M210.7,360.5c0,1.3-0.3,2.2-1,2.9c-0.6,0.7-1.6,1-2.9,1
			c-1.3,0-2.4-0.4-3.2-1.1c-0.9-0.7-1.6-1.7-2.1-2.9l-3.1-6.6l-1.8,0.3v-7.9c0-1,0.2-1.9,0.6-2.8c0.4-0.9,0.9-1.6,1.5-2.2
			c0.6-0.6,1.4-1.1,2.2-1.5c0.9-0.4,1.8-0.5,2.8-0.5c1,0,1.9,0.2,2.8,0.5c0.9,0.4,1.6,0.9,2.2,1.5c0.6,0.6,1.1,1.4,1.5,2.2
			c0.4,0.9,0.5,1.8,0.5,2.8V360.5z"/>
		<path class="st2" d="M218.7,318.1c0-1,0.2-1.9,0.5-2.7c0.4-0.8,0.9-1.6,1.5-2.2c0.6-0.6,1.4-1.1,2.2-1.5c0.9-0.3,1.8-0.5,2.8-0.5
			c1,0,1.9,0.2,2.7,0.5c0.9,0.3,1.6,0.8,2.2,1.5c0.6,0.6,1.1,1.4,1.5,2.2c0.4,0.8,0.6,1.7,0.6,2.7c0,1-0.2,1.9-0.6,2.8
			c-0.4,0.9-0.9,1.6-1.5,2.2c-0.6,0.6-1.4,1.1-2.2,1.4c-0.9,0.3-1.8,0.5-2.7,0.5c-1,0-1.9-0.2-2.8-0.5c-0.9-0.3-1.6-0.8-2.2-1.4
			c-0.6-0.6-1.1-1.3-1.5-2.2C218.9,320,218.7,319.1,218.7,318.1z M218.9,335.1c0-1,0.2-1.9,0.5-2.7c0.4-0.9,0.9-1.6,1.5-2.2
			s1.4-1.1,2.2-1.5c0.9-0.4,1.8-0.6,2.8-0.6c1,0,1.9,0.2,2.7,0.6s1.6,0.9,2.2,1.5c0.6,0.6,1.1,1.4,1.5,2.2c0.4,0.9,0.6,1.8,0.6,2.7
			v22.2c0,1-0.2,1.9-0.6,2.8c-0.4,0.9-0.9,1.6-1.5,2.2c-0.6,0.6-1.4,1.1-2.2,1.5c-0.9,0.4-1.8,0.5-2.7,0.5c-1,0-1.9-0.2-2.8-0.5
			c-0.9-0.4-1.6-0.9-2.2-1.5c-0.6-0.6-1.1-1.4-1.5-2.2c-0.4-0.9-0.5-1.8-0.5-2.8V335.1z"/>
		<path class="st2" d="M240.4,332c0-2.6,1.3-3.9,3.9-3.9c1.3,0,2.3,0.3,3.1,1c0.8,0.7,1.5,1.7,2.1,3l3.1,6.5l1.8-0.3v18.9
			c0,1-0.2,1.9-0.6,2.8c-0.4,0.9-0.9,1.6-1.5,2.2c-0.6,0.6-1.4,1.1-2.2,1.5c-0.9,0.4-1.8,0.5-2.7,0.5c-1,0-1.9-0.2-2.8-0.5
			c-0.9-0.4-1.6-0.9-2.2-1.5c-0.6-0.6-1.1-1.4-1.5-2.2c-0.4-0.9-0.5-1.8-0.5-2.8V332z M262.7,346.2c0-0.6-0.1-1.1-0.3-1.6
			c-0.2-0.5-0.5-1-0.8-1.4c-0.4-0.4-0.8-0.7-1.3-1c-0.5-0.2-1-0.4-1.6-0.4c-0.6,0-1.1,0.1-1.6,0.4s-0.9,0.6-1.3,1
			c-0.4,0.4-0.7,0.9-0.9,1.4c-0.2,0.5-0.3,1.1-0.3,1.6l-6.1-13.8c1.3-1.1,2.6-1.9,3.9-2.5c1.2-0.6,2.4-1,3.5-1.3
			c1.1-0.3,2.1-0.4,3-0.5c0.9,0,1.6-0.1,2.2-0.1c2.5,0,4.7,0.5,6.7,1.4c2,1,3.6,2.3,5,3.9c1.4,1.6,2.4,3.6,3.1,5.8
			c0.7,2.2,1.1,4.5,1.1,7v11.2c0,1-0.2,1.9-0.6,2.7c-0.4,0.8-0.9,1.6-1.5,2.2s-1.4,1.1-2.2,1.5c-0.9,0.4-1.8,0.6-2.7,0.6
			c-1,0-1.9-0.2-2.8-0.6c-0.9-0.4-1.6-0.9-2.2-1.5c-0.6-0.6-1.2-1.4-1.5-2.2c-0.4-0.8-0.6-1.7-0.6-2.7V346.2z"/>
		<path class="st2" d="M313.4,334.5c-0.4-0.3-0.8-0.7-1.2-1.1c-0.4-0.4-0.9-0.8-1.4-1.1c-0.5-0.3-1.1-0.6-1.9-0.9s-1.6-0.4-2.5-0.4
			c-1.3,0-2.6,0.3-3.7,0.8c-1.2,0.5-2.2,1.2-3,2.1c-0.9,0.9-1.5,1.9-2,3.1c-0.5,1.2-0.7,2.4-0.7,3.7s0.3,2.5,0.8,3.7
			s1.2,2.2,2.1,3.1c0.9,0.9,1.9,1.6,3,2.1c1.2,0.5,2.4,0.8,3.7,0.8c1.1,0,2-0.1,2.7-0.5c0.7-0.3,1.4-0.7,2-1.1
			c0.6-0.4,1.2-0.9,1.8-1.4c0.6-0.5,1.3-1,2.1-1.5c0.6-0.3,1.3-0.6,2-0.8c0.7-0.2,1.5-0.3,2.2-0.2c0.7,0,1.5,0.2,2.2,0.5
			c0.7,0.3,1.4,0.7,1.9,1.3c1.3,1.3,2,3,2,4.9c0,0.9-0.2,1.8-0.5,2.6c-0.3,0.8-0.8,1.6-1.5,2.3c-1.1,1.3-2.3,2.5-3.5,3.4
			c-1.2,0.9-2.5,1.7-3.9,2.3c-1.4,0.6-2.9,1.1-4.5,1.3c-1.6,0.3-3.3,0.4-5.2,0.4c-3.3,0-6.3-0.6-9.2-1.9c-2.9-1.2-5.4-2.9-7.5-5.1
			c-2.1-2.1-3.8-4.6-5.1-7.5c-1.2-2.9-1.9-5.9-1.9-9.2c0-3.2,0.6-6.3,1.9-9.1c1.2-2.9,2.9-5.4,5.1-7.5c2.1-2.1,4.6-3.8,7.5-5.1
			c2.9-1.2,5.9-1.9,9.2-1.9c1.8,0,3.5,0.1,5,0.4c1.5,0.3,2.9,0.7,4.2,1.3c1.3,0.6,2.5,1.3,3.7,2.3c1.2,0.9,2.3,2,3.4,3.3
			c0.6,0.7,1.1,1.5,1.4,2.3c0.3,0.8,0.5,1.7,0.6,2.6c0,0.8-0.1,1.6-0.4,2.5c-0.3,0.9-0.9,1.7-1.6,2.4c-0.5,0.5-1.1,1-1.8,1.3
			c-0.7,0.4-1.5,0.6-2.3,0.7c-0.8,0.1-1.7,0-2.6-0.3C315.3,335.7,314.3,335.2,313.4,334.5z"/>
		<path class="st2" d="M348,364.4c-2.5,0-4.8-0.5-7-1.4c-2.2-0.9-4.1-2.2-5.8-3.9c-1.6-1.6-2.9-3.6-3.9-5.8c-1-2.2-1.4-4.6-1.4-7.1
			c0-2.5,0.5-4.8,1.4-7c1-2.2,2.3-4.1,3.9-5.8c1.6-1.6,3.6-2.9,5.8-3.9c2.2-1,4.5-1.4,7-1.4s4.8,0.4,7,1.3c2.2,0.9,4.1,2,5.8,3.5
			s2.9,3.3,3.9,5.4c1,2.1,1.4,4.4,1.4,6.9c0,0.9-0.2,1.7-0.5,2.3c-0.3,0.6-0.7,1.1-1.2,1.4c-0.5,0.3-1.2,0.6-1.9,0.7
			c-0.7,0.1-1.5,0.2-2.4,0.2h-15.9c0,0.3,0.2,0.7,0.4,1c0.2,0.4,0.5,0.7,0.9,1s0.7,0.6,1.2,0.8c0.4,0.2,0.9,0.3,1.4,0.3
			c0.6,0,1-0.1,1.5-0.2c0.4-0.2,0.9-0.3,1.4-0.6c0.5-0.2,1.1-0.4,1.8-0.5c0.7-0.1,1.4-0.1,2.1,0c0.7,0.1,1.4,0.3,2.1,0.5
			c0.7,0.3,1.3,0.6,1.8,1.1s1,1,1.3,1.7c0.3,0.6,0.5,1.4,0.5,2.2c0,1.4-0.4,2.5-1.2,3.5c-0.8,0.9-1.8,1.6-3,2.2
			c-1.2,0.6-2.6,0.9-4.1,1.2C350.9,364.2,349.4,364.4,348,364.4z M348,339.3c-0.4,0-0.8,0.1-1.3,0.2s-0.8,0.3-1.2,0.5
			c-0.4,0.2-0.7,0.5-1,0.8c-0.3,0.3-0.4,0.7-0.5,1.1h7.9c0-0.4-0.2-0.8-0.5-1.1c-0.3-0.3-0.6-0.6-1-0.8c-0.4-0.2-0.8-0.4-1.2-0.5
			C348.8,339.3,348.4,339.3,348,339.3z"/>
		<path class="st2" d="M372.2,323.7c0-1,0.2-1.9,0.5-2.7c0.4-0.9,0.9-1.6,1.5-2.2s1.4-1.1,2.2-1.5c0.9-0.4,1.8-0.6,2.8-0.6
			c1,0,1.9,0.2,2.7,0.6c0.9,0.4,1.6,0.9,2.2,1.5c0.6,0.6,1.1,1.4,1.5,2.2c0.4,0.9,0.6,1.8,0.6,2.7v33.6c0,1-0.2,1.9-0.6,2.8
			c-0.4,0.9-0.9,1.6-1.5,2.2c-0.6,0.6-1.4,1.1-2.2,1.5c-0.9,0.4-1.8,0.5-2.7,0.5c-1,0-1.9-0.2-2.8-0.5c-0.9-0.4-1.6-0.9-2.2-1.5
			c-0.6-0.6-1.1-1.4-1.5-2.2c-0.4-0.9-0.5-1.8-0.5-2.8V323.7z"/>
		<path class="st2" d="M393.8,323.7c0-1,0.2-1.9,0.5-2.7c0.4-0.9,0.9-1.6,1.5-2.2c0.6-0.6,1.4-1.1,2.2-1.5c0.9-0.4,1.8-0.6,2.8-0.6
			c1,0,1.9,0.2,2.7,0.6s1.6,0.9,2.2,1.5c0.6,0.6,1.1,1.4,1.5,2.2c0.4,0.9,0.6,1.8,0.6,2.7v33.6c0,1-0.2,1.9-0.6,2.8
			c-0.4,0.9-0.9,1.6-1.5,2.2c-0.6,0.6-1.4,1.1-2.2,1.5c-0.9,0.4-1.8,0.5-2.7,0.5c-1,0-1.9-0.2-2.8-0.5c-0.9-0.4-1.6-0.9-2.2-1.5
			c-0.6-0.6-1.1-1.4-1.5-2.2c-0.4-0.9-0.5-1.8-0.5-2.8V323.7z"/>
		<path class="st2" d="M430,364.4c-1.1,0-2.2-0.1-3.4-0.3c-1.2-0.2-2.4-0.5-3.6-0.9c-1.2-0.4-2.4-0.9-3.5-1.5
			c-1.1-0.6-2.1-1.3-2.9-2s-1.5-1.6-2-2.5c-0.5-0.9-0.8-1.9-0.8-3c0-0.8,0.1-1.5,0.4-2.2s0.7-1.3,1.2-1.9c0.5-0.5,1.1-1,1.8-1.3
			c0.7-0.3,1.5-0.5,2.3-0.5c0.9,0,1.8,0.2,2.6,0.5c0.8,0.3,1.6,0.7,2.4,1.2c0.8,0.5,1.5,0.9,2.2,1.4c0.7,0.5,1.4,0.9,2,1.2
			c0.2,0.1,0.6,0.3,1,0.4c0.4,0.2,0.8,0.3,1.2,0.3c0.4,0.1,0.7,0,1-0.1s0.4-0.4,0.4-0.9c0-0.3-0.3-0.6-0.8-0.9
			c-0.6-0.3-1.3-0.6-2.1-1s-1.9-0.7-3-1.1c-1.1-0.4-2.2-0.9-3.3-1.4c-1.1-0.5-2.2-1.1-3.2-1.8c-1-0.7-1.9-1.5-2.5-2.4
			c-0.7-0.9-1.2-1.9-1.4-3.1c-0.3-1.2-0.2-2.5,0.2-3.9c0.3-1,0.8-2.1,1.4-3.1c0.7-1.1,1.5-2,2.7-2.9c1.1-0.9,2.5-1.6,4.1-2.1
			c1.6-0.6,3.5-0.8,5.7-0.8c2,0,3.9,0.2,5.8,0.6c1.8,0.4,3.5,0.9,4.8,1.7c1.4,0.7,2.5,1.7,3.3,2.7c0.8,1.1,1.2,2.3,1.2,3.7
			c0,1-0.2,1.9-0.6,2.6c-0.4,0.7-0.9,1.3-1.5,1.8c-0.6,0.5-1.3,0.8-2,1s-1.4,0.3-2,0.3c-0.6,0-1.1-0.1-1.7-0.3s-1.1-0.5-1.6-0.7
			c-0.5-0.3-1-0.6-1.4-0.9c-0.4-0.3-0.8-0.6-1.2-0.9c-0.3-0.2-0.7-0.4-1-0.5c-0.4-0.1-0.7-0.1-1-0.1c-0.3,0-0.6,0.1-0.8,0.3
			c-0.2,0.2-0.3,0.4-0.3,0.7c0,0.1,0.1,0.3,0.4,0.5c0.3,0.2,0.6,0.3,1.1,0.5c0.4,0.2,1,0.4,1.5,0.6c0.6,0.2,1.2,0.4,1.8,0.6
			c0.6,0.2,1.3,0.5,2.1,0.8c0.8,0.3,1.6,0.6,2.5,1c0.9,0.4,1.7,0.9,2.5,1.5s1.6,1.3,2.2,2.1c0.7,0.8,1.2,1.7,1.6,2.8
			c0.4,1.1,0.6,2.3,0.6,3.7c0,1.8-0.5,3.4-1.4,4.8c-0.9,1.3-2.2,2.4-3.7,3.2s-3.3,1.5-5.3,1.9C434.2,364.2,432.1,364.4,430,364.4z"
			/>
	</g>
	<circle class="st3" cx="151.7" cy="166.5" r="13.7"/>
	<circle class="st2" cx="371.1" cy="171.1" r="6.4"/>
	<circle class="st4" cx="353.2" cy="118" r="14.9"/>
	<g>
		<g>
			<circle class="st2" cx="254.2" cy="202.4" r="4.7"/>
			<circle class="st2" cx="292.8" cy="202.4" r="4.7"/>
			<path class="st4" d="M273,234.9c-4.6,0-8.7-0.8-12.3-1.8c-10.8-3.2-17.8-9.5-18.1-9.7c-1.3-1.1-1.4-3.1-0.2-4.4
				c1.1-1.3,3.1-1.4,4.4-0.2c0.1,0.1,6.5,5.7,15.9,8.5c12.4,3.6,24.2,0.8,35-8.3c1.3-1.1,3.2-0.9,4.4,0.4c1.1,1.3,0.9,3.2-0.4,4.4
				C291.5,232.2,281.5,234.9,273,234.9z"/>
		</g>
		<path class="st2" d="M185.3,103.9c0-6.9,2.4-12.7,7.3-17.6c4.8-4.8,10.7-7.3,17.6-7.3c6.9,0,12.7,2.4,17.6,7.3
			c4.8,4.8,7.3,10.7,7.3,17.6v20.5c11.3-5.4,23.7-8.1,37.3-8.1c24,0,44.5,8.5,61.5,25.5s25.5,37.5,25.5,61.5s-8.5,44.5-25.5,61.5
			s-37.5,25.5-61.5,25.5c-15.4,0-29.4-3.5-41.9-10.4c-0.7,1.1-1.6,2.1-2.6,3.1c-4.9,4.9-10.8,7.3-17.7,7.3s-12.7-2.4-17.6-7.3
			c-4.8-4.8-7.3-10.7-7.3-17.6L185.3,103.9L185.3,103.9z M272.3,144.5c-16.2,0-30.1,5.8-41.6,17.3s-17.3,25.4-17.3,41.6
			s5.8,30.1,17.3,41.6s25.4,17.3,41.6,17.3s30.1-5.7,41.6-17.3c11.5-11.5,17.3-25.4,17.3-41.6s-5.8-30.1-17.3-41.6
			C302.4,150.2,288.5,144.5,272.3,144.5z"/>
		<g>
			<g>
				<defs>
					<path id="SVGID_1_" d="M185.3,103.9c0-6.9,2.4-12.7,7.3-17.6c4.8-4.8,10.7-7.3,17.6-7.3c6.9,0,12.7,2.4,17.6,7.3
						c4.8,4.8,7.3,10.7,7.3,17.6v20.5c11.3-5.4,23.7-8.1,37.3-8.1c24,0,44.5,8.5,61.5,25.5s25.5,37.5,25.5,61.5s-8.5,44.5-25.5,61.5
						s-37.5,25.5-61.5,25.5c-15.4,0-29.4-3.5-41.9-10.4c-0.7,1.1-1.6,2.1-2.6,3.1c-4.9,4.9-10.8,7.3-17.7,7.3s-12.7-2.4-17.6-7.3
						c-4.8-4.8-7.3-10.7-7.3-17.6L185.3,103.9L185.3,103.9z M272.3,144.5c-16.2,0-30.1,5.8-41.6,17.3s-17.3,25.4-17.3,41.6
						s5.8,30.1,17.3,41.6s25.4,17.3,41.6,17.3s30.1-5.7,41.6-17.3c11.5-11.5,17.3-25.4,17.3-41.6s-5.8-30.1-17.3-41.6
						C302.4,150.2,288.5,144.5,272.3,144.5z"/>
				</defs>
				<clipPath id="SVGID_00000129200412138333104130000010973222022052558760_">
					<use xlink:href="#SVGID_1_"  style="overflow:visible;"/>
				</clipPath>
				
					<rect x="276.8" y="74.4" style="clip-path:url(#SVGID_00000129200412138333104130000010973222022052558760_);fill:#FFCB05;" width="96.1" height="237.2"/>
			</g>
		</g>
	</g>
</g>
</svg>
